<svg id="visual" viewBox="0 0 960 80" width="960" height="80" xmlns="http://www.w3.org/2000/svg" xmlns:xlink="http://www.w3.org/1999/xlink" version="1.1"><rect x="0" y="0" width="960" height="80" fill="#FF00E4"></rect><path d="M0 57L13.3 57.3C26.7 57.7 53.3 58.3 80 57.3C106.7 56.3 133.3 53.7 160 55.2C186.7 56.7 213.3 62.3 240 64.3C266.7 66.3 293.3 64.7 320 62.7C346.7 60.7 373.3 58.3 400 57.8C426.7 57.3 453.3 58.7 480 60.5C506.7 62.3 533.3 64.7 560 63C586.7 61.3 613.3 55.7 640 55.7C666.7 55.7 693.3 61.3 720 61.8C746.7 62.3 773.3 57.7 800 57.3C826.7 57 853.3 61 880 62.5C906.7 64 933.3 63 946.7 62.5L960 62L960 81L946.7 81C933.3 81 906.7 81 880 81C853.3 81 826.7 81 800 81C773.3 81 746.7 81 720 81C693.3 81 666.7 81 640 81C613.3 81 586.7 81 560 81C533.3 81 506.7 81 480 81C453.3 81 426.7 81 400 81C373.3 81 346.7 81 320 81C293.3 81 266.7 81 240 81C213.3 81 186.7 81 160 81C133.3 81 106.7 81 80 81C53.3 81 26.7 81 13.3 81L0 81Z" fill="#FDB9FC" stroke-linecap="round" stroke-linejoin="miter"></path></svg>